<?xml version="1.0" encoding="UTF-8"?>
<svg version="1.1" xmlns="http://www.w3.org/2000/svg" width="1536" height="1024">
<path d="M0 0 C506.88 0 1013.76 0 1536 0 C1536 337.92 1536 675.84 1536 1024 C1029.12 1024 522.24 1024 0 1024 C0 686.08 0 348.16 0 0 Z " fill="#FDFEFE" transform="translate(0,0)"/>
<path d="M0 0 C3.04849713 0.04775971 6.09355062 0.04102071 9.14233398 0.02783203 C11.08311008 0.03897011 13.02387154 0.0531801 14.96459961 0.07080078 C15.87391739 0.06897797 16.78323517 0.06715515 17.72010803 0.0652771 C23.91916065 0.20563972 23.91916065 0.20563972 26.56201172 2.48339844 C27.93453123 5.82651443 27.35154686 8.23621406 26.46069336 11.67236328 C23.43078946 13.69229921 22.8600027 13.92163859 19.4675293 13.92773438 C18.6694989 13.9346933 17.87146851 13.94165222 17.04925537 13.94882202 C15.7601828 13.94732651 15.7601828 13.94732651 14.44506836 13.94580078 C12.61823941 13.96609796 10.79141654 13.9869489 8.96459961 14.00830078 C6.09003573 14.03085407 3.21571259 14.04735303 0.34106445 14.05322266 C-2.4372088 14.06278477 -5.21440213 14.09661503 -7.99243164 14.13330078 C-8.84371643 14.12825531 -9.69500122 14.12320984 -10.57208252 14.11801147 C-16.99104651 14.22303515 -21.42900947 15.67341326 -26.17602539 20.25048828 C-34.73585978 33.86985303 -35.99219177 54.06348943 -39.16430664 69.54736328 C-39.68861396 72.09896355 -40.212947 74.65055852 -40.73730469 77.20214844 C-41.81040686 82.42991819 -42.88040752 87.65830931 -43.94799805 92.88720703 C-44.98996585 97.98972266 -46.03643321 103.09127573 -47.08764648 108.19189453 C-48.29378644 114.0453956 -49.49118078 119.90061357 -50.68133545 125.75738525 C-51.12674437 127.94299082 -51.57500768 130.1280167 -52.02618408 132.31243896 C-52.6494966 135.33444925 -53.26184769 138.35847712 -53.87133789 141.38330078 C-54.05713913 142.27223022 -54.24294037 143.16115967 -54.43437195 144.07702637 C-54.67737785 145.30056824 -54.67737785 145.30056824 -54.92529297 146.54882812 C-55.06896805 147.25325043 -55.21264313 147.95767273 -55.360672 148.68344116 C-55.56636466 150.97362783 -55.32482297 152.51327359 -54.53930664 154.67236328 C-52.89386884 156.35999179 -51.22642087 158.02639818 -49.53930664 159.67236328 C-46.62589578 164.33782535 -46.91379791 169.3516779 -47.53930664 174.67236328 C-49.99498216 179.67466526 -53.53633734 183.17087863 -58.53930664 185.67236328 C-64.04568887 186.1751916 -68.9417044 186.38557857 -74.03930664 184.10986328 C-77.95442038 180.29262738 -80.28226544 177.29345951 -80.81665039 171.84423828 C-80.90431623 164.40238246 -80.90431623 164.40238246 -79.53930664 161.67236328 C-105.93930664 161.67236328 -132.33930664 161.67236328 -159.53930664 161.67236328 C-159.04430664 162.66236328 -159.04430664 162.66236328 -158.53930664 163.67236328 C-158.0270265 169.28225077 -157.77674631 174.12000832 -160.28930664 179.23486328 C-164.16976937 183.4386979 -167.01846921 185.4821114 -172.85180664 185.92236328 C-177.49298152 185.60770736 -180.62712641 184.55877289 -183.98852539 181.24267578 C-188.08016594 176.52966861 -188.84774462 172.90883044 -188.75024414 166.88330078 C-188.31661038 162.3381765 -185.96927713 160.12280856 -182.91430664 156.92236328 C-179.1953229 153.92651527 -175.17588647 153.7857019 -170.53930664 153.67236328 C-170.81645508 153.14126953 -171.09360352 152.61017578 -171.37915039 152.06298828 C-171.74137695 151.35658203 -172.10360352 150.65017578 -172.47680664 149.92236328 C-172.83645508 149.22626953 -173.19610352 148.53017578 -173.56665039 147.81298828 C-176.39996084 141.57742954 -176.73575114 133.84966377 -174.85571289 127.28564453 C-172.34753277 121.82176668 -168.76882474 118.41215423 -163.46284485 115.55374146 C-159.20119171 114.26895302 -155.12737081 114.41095134 -150.70019531 114.4453125 C-149.22143417 114.44487442 -149.22143417 114.44487442 -147.71279907 114.44442749 C-144.46086768 114.44581856 -141.20916666 114.46136948 -137.95727539 114.47705078 C-135.69997788 114.4807817 -133.44267874 114.4836283 -131.18537903 114.48562622 C-125.24894731 114.49325646 -119.3126137 114.51289983 -113.3762207 114.53503418 C-107.31666389 114.55550566 -101.2570912 114.56463073 -95.19750977 114.57470703 C-83.31139899 114.59614621 -71.42536098 114.6302749 -59.53930664 114.67236328 C-59.4065332 113.75712891 -59.27375977 112.84189453 -59.13696289 111.89892578 C-58.87206055 110.11615234 -58.87206055 110.11615234 -58.60180664 108.29736328 C-58.4277832 107.11400391 -58.25375977 105.93064453 -58.07446289 104.71142578 C-57.53930664 101.67236328 -57.53930664 101.67236328 -56.53930664 99.67236328 C-57.08799062 99.67512866 -57.63667459 99.67789404 -58.20198536 99.68074322 C-71.54698112 99.74696959 -84.89194813 99.79643606 -98.23707294 99.8277998 C-104.69066287 99.84347561 -111.14413445 99.86474899 -117.59765625 99.89868164 C-123.82218277 99.93120652 -130.04659526 99.94920185 -136.27120018 99.95699501 C-138.64953597 99.96255087 -141.02786531 99.97339965 -143.40615273 99.98955345 C-146.72972881 100.01123609 -150.05282976 100.01433401 -153.37646484 100.01293945 C-154.36620804 100.02372528 -155.35595123 100.03451111 -156.37568665 100.04562378 C-157.28012512 100.04149979 -158.1845636 100.03737579 -159.1164093 100.03312683 C-159.90269872 100.03589221 -160.68898813 100.03865759 -161.4991045 100.04150677 C-164.09210306 99.57234319 -164.95423332 98.74514452 -166.53930664 96.67236328 C-167.29125977 93.72753906 -167.29125977 93.72753906 -167.82055664 90.11767578 C-167.91931595 89.46793289 -168.01807526 88.81819 -168.11982727 88.14875793 C-168.43835025 86.03321547 -168.73913035 83.91557997 -169.03930664 81.79736328 C-169.25405343 80.34221977 -169.46979701 78.88722303 -169.68652344 77.43237305 C-170.11639767 74.53207158 -170.53892295 71.63085175 -170.95483398 68.72851562 C-171.46194857 65.19280295 -171.99061374 61.66071052 -172.52758789 58.12939453 C-172.80306275 56.28966073 -173.07786345 54.44982578 -173.35180664 52.60986328 C-173.47555664 51.79211426 -173.59930664 50.97436523 -173.72680664 50.13183594 C-175.47429393 37.9893691 -175.47429393 37.9893691 -173.35158062 34.99935436 C-170.89655342 33.20172374 -169.31086313 33.30276691 -166.28120422 33.31159973 C-165.19165436 33.30747574 -164.10210449 33.30335175 -162.97953796 33.29910278 C-161.78407852 33.30988861 -160.58861908 33.32067444 -159.35693359 33.33178711 C-158.09828491 33.33134903 -156.83963623 33.33091095 -155.54284668 33.33045959 C-152.09052692 33.32959794 -148.6385191 33.34725088 -145.18627191 33.36818147 C-141.57880241 33.3869201 -137.97132596 33.38869648 -134.36381531 33.39225769 C-127.53210606 33.40158646 -120.70054064 33.4262114 -113.86889476 33.45630616 C-106.0914844 33.48982436 -98.31406721 33.50632967 -90.53660262 33.52139246 C-74.53742063 33.55276031 -58.53838217 33.60553686 -42.53930664 33.67236328 C-42.47890198 33.06087936 -42.41849731 32.44939545 -42.35626221 31.81938171 C-42.27261414 31.01378311 -42.18896606 30.20818451 -42.1027832 29.37817383 C-42.02175354 28.58106491 -41.94072388 27.78395599 -41.85723877 26.96269226 C-40.83855923 19.62429815 -37.03849779 11.58653409 -31.53930664 6.67236328 C-21.71258804 -0.50234161 -11.70308013 -0.19681888 0 0 Z " fill="#1050DF" transform="translate(439.539306640625,389.32763671875)"/>
<path d="M0 0 C11.92717983 7.79036219 20.23529495 17.6656479 24.8125 31.3125 C25.3075 34.7775 25.3075 34.7775 25.8125 38.3125 C17.8925 38.3125 9.9725 38.3125 1.8125 38.3125 C0.8225 35.3425 -0.1675 32.3725 -1.1875 29.3125 C-4.73368821 22.7454848 -10.29560531 17.14517072 -17.3125 14.375 C-27.45603865 11.57678244 -37.84530527 12.57870334 -47.1875 17.3125 C-56.09919751 22.96800034 -60.7148696 32.7479976 -63.10620117 42.76586914 C-66.3451284 58.68888933 -65.26772357 75.57731508 -56.984375 89.765625 C-52.14500315 96.62490859 -46.29994696 101.1626742 -38.1875 103.3125 C-35.21415444 103.72157772 -32.31098436 103.79048098 -29.3125 103.75 C-28.52383545 103.74242676 -27.7351709 103.73485352 -26.92260742 103.72705078 C-18.13929815 103.47932801 -11.16564198 101.0616481 -4.65234375 95.0234375 C-2.14841652 92.0988505 -0.68823154 88.82606105 0.8125 85.3125 C1.8025 83.3325 1.8025 83.3325 2.8125 81.3125 C10.0725 81.3125 17.3325 81.3125 24.8125 81.3125 C22.95590852 94.30864036 17.70775968 104.69105687 7.5 113.0625 C-6.66535797 123.39938284 -23.12204587 126.56572085 -40.36181641 123.98730469 C-55.43161375 121.05676922 -67.92340791 113.26954907 -76.81640625 100.59765625 C-84.53317839 87.73636936 -87.71453661 75.36403121 -87.57861328 60.4699707 C-87.5625462 58.38100647 -87.57853471 56.2939836 -87.59765625 54.20507812 C-87.62793364 36.31774889 -82.52933059 20.75691347 -69.85546875 7.71875 C-51.03306094 -9.25724299 -22.09527407 -12.20338983 0 0 Z " fill="#1151DE" transform="translate(1000.1875,443.6875)"/>
<path d="M0 0 C6.85444229 5.78207711 11.6594579 11.2796432 13.625 20.25 C14.02601865 25.50451387 13.9756928 30.73942675 13.91796875 36.00390625 C13.91236328 37.5156156 13.90809768 39.02733046 13.90510559 40.53904724 C13.89373155 44.48958777 13.86433001 48.43978967 13.83099365 52.39019775 C13.80013087 56.4326113 13.78656586 60.47508035 13.77148438 64.51757812 C13.73945178 72.42855702 13.68674625 80.33919718 13.625 88.25 C6.695 88.25 -0.235 88.25 -7.375 88.25 C-7.705 83.96 -8.035 79.67 -8.375 75.25 C-8.931875 76.136875 -9.48875 77.02375 -10.0625 77.9375 C-14.43801888 84.44704388 -19.60782839 88.61792694 -27.375 90.25 C-39.8082383 91.32901577 -50.63357075 90.9861149 -60.75 83.0625 C-66.96336111 77.08811431 -68.60210473 71.35217945 -68.9375 62.8125 C-68.6944595 54.98816384 -67.09684466 49.21251822 -61.68359375 43.44921875 C-52.72968587 35.91597266 -40.79109195 34.62060664 -29.5625 33.6875 C-19.09581618 32.87522383 -19.09581618 32.87522383 -9.375 29.25 C-8.76766013 21.43114951 -8.76766013 21.43114951 -11 14.125 C-16.52022467 9.7669279 -22.60182172 9.59814525 -29.375 10.25 C-34.0943142 11.19239035 -37.41618644 12.26660148 -40.8125 15.75 C-41.5859375 16.9875 -41.5859375 16.9875 -42.375 18.25 C-43.035 19.24 -43.695 20.23 -44.375 21.25 C-51.08057271 21.67575065 -57.70372277 20.94830192 -64.375 20.25 C-63.8770653 12.28304478 -60.43591191 6.94586391 -54.6875 1.5 C-40.5407905 -10.21315456 -14.89500481 -10.42365538 0 0 Z " fill="#1151DE" transform="translate(1103.375,477.75)"/>
<path d="M0 0 C9.91366384 7.5422891 14.39075841 16.94584616 17.3515625 28.7890625 C17.3515625 34.7290625 17.3515625 40.6690625 17.3515625 46.7890625 C-4.7584375 46.7890625 -26.8684375 46.7890625 -49.6484375 46.7890625 C-46.55195975 61.36036123 -46.55195975 61.36036123 -36.6484375 70.7890625 C-29.38582537 73.77954985 -21.09816153 74.09395211 -13.7734375 71.1640625 C-10.55304582 69.73141677 -9.56170241 68.66267256 -7.50390625 65.6640625 C-5.86555189 63.60731119 -5.06608573 62.88223738 -2.47070312 62.30322266 C0.09816726 62.19898306 2.59761641 62.26478376 5.1640625 62.4140625 C6.04771484 62.44113281 6.93136719 62.46820312 7.84179688 62.49609375 C10.01277364 62.56650381 12.18248779 62.67411644 14.3515625 62.7890625 C13.13131753 71.76294735 8.63520118 77.23336085 1.828125 83.02734375 C-9.31261863 90.95238378 -24.62087187 91.63471249 -37.74023438 89.43896484 C-49.28598219 86.59565502 -57.78169877 78.13390397 -64.1796875 68.4765625 C-71.42662836 55.21620263 -72.8602604 39.14852173 -68.68359375 24.6953125 C-64.27983481 12.33155154 -58.30630751 2.70759406 -46.3984375 -3.2109375 C-31.55935736 -10.20928097 -13.83946322 -8.91876518 0 0 Z " fill="#1151DE" transform="translate(696.6484375,478.2109375)"/>
<path d="M0 0 C6.93 0 13.86 0 21 0 C21.33 15.84 21.66 31.68 22 48 C25.96 43.545 25.96 43.545 30 39 C32.86328125 37.0625 32.86328125 37.0625 35.3125 36 C36.13363281 35.62875 36.95476563 35.2575 37.80078125 34.875 C46.13513461 31.55902282 56.2635884 31.88092532 64.6953125 34.921875 C74.70710273 39.60535653 79.02955945 47.0029979 83 57 C83.98348119 60.92136991 84.12124254 64.59015359 84.11352539 68.6262207 C84.11367142 69.27068649 84.11381744 69.91515228 84.1139679 70.57914734 C84.11327506 72.69472704 84.10551231 74.81021706 84.09765625 76.92578125 C84.09578983 78.39837089 84.09436699 79.87096115 84.09336853 81.34355164 C84.08956096 85.20852388 84.07974579 89.0734582 84.06866455 92.93841553 C84.0584125 96.88667284 84.05386279 100.83493632 84.04882812 104.78320312 C84.03812187 112.52215466 84.02053941 120.26106717 84 128 C76.74 128 69.48 128 62 128 C61.98541748 126.0926709 61.97083496 124.1853418 61.95581055 122.22021484 C61.9040837 115.90570955 61.83877752 109.59145785 61.76428509 103.27718163 C61.71963123 99.45027157 61.68036445 95.62346675 61.65356445 91.79638672 C61.62748125 88.10034241 61.58704424 84.40470413 61.53681374 80.7089119 C61.52017875 79.30163259 61.50864352 77.89428311 61.50238609 76.4869194 C61.49270919 74.50988299 61.46292214 72.53297641 61.43237305 70.55615234 C61.41571846 68.87070816 61.41571846 68.87070816 61.39872742 67.1512146 C60.78256186 62.28154718 58.90974212 58.23180441 55 55.1875 C49.40981485 51.11132333 43.69490882 51.4052746 37 52 C31.54215745 53.4803952 28.18833109 56.33293447 25.0078125 60.92578125 C21.47546528 68.19584471 21.66038297 75.42752795 21.5859375 83.37109375 C21.56657135 84.64855972 21.5472052 85.9260257 21.5272522 87.24220276 C21.47776994 90.61720531 21.43642928 93.99210387 21.39910889 97.36724854 C21.35890258 100.81979965 21.30788663 104.27218977 21.2578125 107.72460938 C21.16196748 114.48297763 21.07786331 121.24140163 21 128 C14.07 128 7.14 128 0 128 C0 85.76 0 43.52 0 0 Z " fill="#1251DE" transform="translate(816,438)"/>
<path d="M0 0 C27.39 0 54.78 0 83 0 C83 6.27 83 12.54 83 19 C62.87 19 42.74 19 22 19 C22 31.21 22 43.42 22 56 C40.15 56 58.3 56 77 56 C77 62.27 77 68.54 77 75 C58.85 75 40.7 75 22 75 C22 92.49 22 109.98 22 128 C14.74 128 7.48 128 0 128 C0 85.76 0 43.52 0 0 Z " fill="#1251DE" transform="translate(474,438)"/>
<path d="M0 0 C0.83523193 0.00563965 1.67046387 0.0112793 2.53100586 0.01708984 C13.04214737 0.22313066 22.35376064 2.58544553 30.6875 9.3125 C35.5191183 15.17708497 36.6875 19.58655606 36.6875 27.3125 C30.0875 27.3125 23.4875 27.3125 16.6875 27.3125 C15.6975 25.0025 14.7075 22.6925 13.6875 20.3125 C7.87157815 16.47646644 1.48438173 16.6139316 -5.3125 17.3125 C-9.46789649 18.77053386 -12.31129805 20.3100961 -14.3125 24.3125 C-14.7920519 28.14891523 -14.98826463 30.33939893 -12.75 33.5625 C-6.62788706 37.95786313 0.12878406 39.16436397 7.375 40.625 C19.05562917 43.12723317 30.2034149 46.49444826 38 56.1875 C41.29643921 62.4696485 40.77137828 70.51371507 38.875 77.16015625 C35.18421529 85.45160663 28.76806093 91.28617511 20.4375 94.75 C13.61257759 97.23685898 7.19516564 97.52394586 0 97.5625 C-1.41442383 97.5934375 -1.41442383 97.5934375 -2.85742188 97.625 C-13.42816018 97.6831209 -22.93388361 94.92871777 -31.3125 88.3125 C-36.94925013 82.23319511 -37.59832514 77.88337432 -39.3125 69.3125 C-32.3825 69.3125 -25.4525 69.3125 -18.3125 69.3125 C-17.3225 71.6225 -16.3325 73.9325 -15.3125 76.3125 C-8.58111946 81.64150959 -2.63033995 81.91264795 5.6875 81.3125 C10.02049127 80.31522423 13.87333266 78.88657603 16.6875 75.3125 C17.23468251 73.17641227 17.23468251 73.17641227 17.1875 70.875 C17.2184375 70.11316406 17.249375 69.35132813 17.28125 68.56640625 C16.34704789 65.02012588 14.82478496 64.21107835 11.6875 62.3125 C7.97341727 60.98981559 4.18625449 60.00162474 0.375 59 C-30.48115753 50.42225342 -30.48115753 50.42225342 -36.953125 39.55859375 C-39.50970364 33.45366028 -39.36961988 26.24523764 -37.65625 19.87109375 C-33.67131504 11.09393097 -26.11371097 5.68398254 -17.3125 2.3125 C-11.43175161 0.55319661 -6.12421096 -0.04339455 0 0 Z " fill="#1151DE" transform="translate(764.3125,470.6875)"/>
<path d="M0 0 C7.26 0 14.52 0 22 0 C22 8.25 22 16.5 22 25 C27.94 25 33.88 25 40 25 C40 30.61 40 36.22 40 42 C34.06 42 28.12 42 22 42 C22.0440824 49.76002252 22.11384442 57.51922596 22.20751953 65.27880859 C22.23576253 67.9190418 22.25696038 70.55936008 22.27099609 73.19970703 C22.29237856 76.9929572 22.33900791 80.78518079 22.390625 84.578125 C22.39185364 85.76053772 22.39308228 86.94295044 22.39434814 88.16119385 C22.41406677 89.26203308 22.4337854 90.36287231 22.45410156 91.49707031 C22.46298401 92.46525696 22.47186646 93.4334436 22.48101807 94.43096924 C23.14851451 97.73516692 24.3873155 98.93230452 27 101 C29.80178374 101.69157955 29.80178374 101.69157955 32.75 101.75 C34.22726562 101.83507812 34.22726562 101.83507812 35.734375 101.921875 C36.48203125 101.94765625 37.2296875 101.9734375 38 102 C38.50546036 104.08201528 39.00416835 106.16567067 39.5 108.25 C39.7784375 109.41015625 40.056875 110.5703125 40.34375 111.765625 C41 115 41 115 41 119 C36.63041839 120.4565272 32.3908797 120.26542961 27.8125 120.3125 C26.89146484 120.34150391 25.97042969 120.37050781 25.02148438 120.40039062 C18.81521809 120.45765213 14.15975864 119.57261198 9 116 C3.22410123 110.22410123 0.23855318 103.4101416 -0.12025452 95.27275085 C-0.1169236 93.79715446 -0.1169236 93.79715446 -0.11352539 92.29174805 C-0.11344986 91.17096359 -0.11337433 90.05017914 -0.11329651 88.89543152 C-0.10813522 87.6963063 -0.10297394 86.49718109 -0.09765625 85.26171875 C-0.0962413 84.02581497 -0.09482635 82.78991119 -0.09336853 81.51655579 C-0.08872618 78.24341655 -0.07975311 74.97032713 -0.06866455 71.69720459 C-0.05840404 68.35217752 -0.05394631 65.00714827 -0.04882812 61.66210938 C-0.03780907 55.10805099 -0.02054953 48.55403516 0 42 C-4.29 42 -8.58 42 -13 42 C-13 36.39 -13 30.78 -13 25 C-8.71 25 -4.42 25 0 25 C0 16.75 0 8.5 0 0 Z " fill="#1555DF" transform="translate(1204,447)"/>
<path d="M0 0 C1.07507813 -0.00257813 2.15015625 -0.00515625 3.2578125 -0.0078125 C5.875 0.125 5.875 0.125 6.875 1.125 C6.96169432 2.6137186 6.98203494 4.106445 6.97265625 5.59765625 C6.96943359 6.49677734 6.96621094 7.39589844 6.96289062 8.32226562 C6.95032227 9.74055664 6.95032227 9.74055664 6.9375 11.1875 C6.93298828 12.13689453 6.92847656 13.08628906 6.92382812 14.06445312 C6.9120011 16.41803065 6.89552025 18.77148477 6.875 21.125 C5.740625 21.15078125 4.60625 21.1765625 3.4375 21.203125 C-9.73688084 21.47499089 -9.73688084 21.47499089 -20.5 28.5625 C-23.39691572 33.13071326 -24.37558305 36.79615848 -24.44384766 42.20043945 C-24.46371735 43.40130692 -24.48358704 44.60217438 -24.50405884 45.83943176 C-24.51561005 47.12605209 -24.52716125 48.41267242 -24.5390625 49.73828125 C-24.55778598 51.07636189 -24.57736027 52.41443087 -24.5977478 53.75248718 C-24.6489507 57.26226916 -24.68863936 60.77208938 -24.72589111 64.28204346 C-24.76600539 67.86846278 -24.81706374 71.4547247 -24.8671875 75.04101562 C-24.96380636 82.06890101 -25.04724339 89.09687692 -25.125 96.125 C-32.385 96.125 -39.645 96.125 -47.125 96.125 C-47.125 65.105 -47.125 34.085 -47.125 2.125 C-40.195 2.125 -33.265 2.125 -26.125 2.125 C-26.125 7.735 -26.125 13.345 -26.125 19.125 C-25.465 19.125 -24.805 19.125 -24.125 19.125 C-24.08375 18.3 -24.0425 17.475 -24 16.625 C-22.64249899 11.19499596 -19.77965246 6.8730636 -15.0546875 3.76171875 C-9.98187133 1.18787291 -5.72936821 -0.01380571 0 0 Z " fill="#1352DF" transform="translate(615.125,469.875)"/>
<path d="M0 0 C1 1 1 1 1.11352539 2.94946289 C1.10828857 3.7821167 1.10305176 4.61477051 1.09765625 5.47265625 C1.09443359 6.37177734 1.09121094 7.27089844 1.08789062 8.19726562 C1.07532227 9.61555664 1.07532227 9.61555664 1.0625 11.0625 C1.05798828 12.01189453 1.05347656 12.96128906 1.04882812 13.93945312 C1.0370011 16.29303065 1.02052025 18.64648477 1 21 C-0.19496094 21.00257813 -1.38992188 21.00515625 -2.62109375 21.0078125 C-14.09683109 21.11687456 -14.09683109 21.11687456 -24.2734375 25.94140625 C-30.53934941 33.41230122 -30.60029384 40.51097366 -30.609375 49.90625 C-30.62437992 51.24005111 -30.64111187 52.5738338 -30.65948486 53.90759277 C-30.70291259 57.39275025 -30.72310208 60.87765722 -30.73822021 64.36303711 C-30.75788093 67.92967391 -30.79984031 71.49604363 -30.83984375 75.0625 C-30.91487878 82.04159188 -30.96326633 89.0206024 -31 96 C-37.93 96 -44.86 96 -52 96 C-52 64.98 -52 33.96 -52 2 C-45.4 2 -38.8 2 -32 2 C-32 7.61 -32 13.22 -32 19 C-31.34 19 -30.68 19 -30 19 C-30 18.195625 -30 17.39125 -30 16.5625 C-28.26982997 10.39876928 -24.05038671 5.88761554 -18.6328125 2.53515625 C-12.56737566 -0.18750789 -6.58928227 -0.72948497 0 0 Z " fill="#1050DE" transform="translate(1184,470)"/>
<path d="M0 0 C0.93663483 -0.00014603 1.87326965 -0.00029205 2.83828735 -0.0004425 C5.94413544 0.00025595 9.04992407 0.00804524 12.15576172 0.01586914 C14.30524666 0.01773356 16.45473202 0.01915735 18.60421753 0.02015686 C24.26940071 0.02398017 29.93455837 0.03380888 35.59973145 0.04486084 C41.37751927 0.05507896 47.15531121 0.05965534 52.93310547 0.06469727 C64.27556642 0.0754313 75.61800171 0.09302661 86.96044922 0.11352539 C85.64044922 7.37352539 84.32044922 14.63352539 82.96044922 22.11352539 C71.45992741 22.20393283 59.95964204 22.27730289 48.45884514 22.32077408 C43.1184251 22.34163919 37.77826102 22.36993751 32.43798828 22.4152832 C27.28327039 22.45877885 22.12879854 22.48267059 16.97391129 22.49303436 C15.00832369 22.50041902 13.0427494 22.51483959 11.07726669 22.53644562 C8.32172409 22.56552893 5.5671951 22.56947932 2.81152344 22.56762695 C2.00087936 22.58200806 1.19023529 22.59638916 0.35502625 22.61120605 C-5.84330444 22.56618935 -9.33842827 20.63457306 -13.91455078 16.36352539 C-15.60156411 12.98949874 -15.71228655 9.75931922 -15.03955078 6.11352539 C-10.89057853 -0.38653114 -7.21689795 -0.02913791 0 0 Z " fill="#FBFDFE" transform="translate(290.03955078125,515.886474609375)"/>
<path d="M0 0 C38.61 0 77.22 0 117 0 C116.01 5.28 115.02 10.56 114 16 C77.04 16 40.08 16 2 16 C0 6 0 6 0 0 Z " fill="#F2F6FD" transform="translate(277,435)"/>
<path d="M0 0 C35.31 0 70.62 0 107 0 C106 9 106 9 104 15 C70.34 15 36.68 15 2 15 C0 6 0 6 0 0 Z " fill="#FCFDFE" transform="translate(281,462)"/>
<path d="M0 0 C0.39475279 9.32786223 0.74623557 18.36649811 -5.375 25.9375 C-13.52864624 32.34393633 -20.74858978 32.85136854 -31 32 C-34.53422583 30.89088523 -37.12813776 29.39855035 -39.14453125 26.1640625 C-40.72136924 22.1751664 -40.64961049 18.20258217 -40 14 C-38.39517238 10.75055564 -36.21015491 8.63533133 -32.96875 6.93359375 C-27.760571 5.29575851 -22.3306743 4.87818654 -16.92382812 4.23242188 C-11.57767935 3.53876386 -5.01691225 0 0 0 Z " fill="#FAFCFE" transform="translate(1096,520)"/>
<path d="M0 0 C6.2626269 3.33266177 9.77261628 8.84539443 12.15625 15.28515625 C12.63671875 17.3125 12.63671875 17.3125 12.63671875 22.3125 C-2.21328125 22.3125 -17.06328125 22.3125 -32.36328125 22.3125 C-32.36328125 14.6628972 -31.08828166 10.24709123 -25.8359375 4.69921875 C-18.56619229 -1.57163017 -9.19266161 -2.67422883 0 0 Z " fill="#FBFCFE" transform="translate(680.36328125,488.6875)"/>
<path d="M0 0 C5.94 0 11.88 0 18 0 C18 5.28 18 10.56 18 16 C12.06 16 6.12 16 0 16 C0 34.48 0 52.96 0 72 C-2.57559128 69.42440872 -2.25278679 68.4268332 -2.25878906 64.84765625 C-2.26509338 63.77314209 -2.27139771 62.69862793 -2.27789307 61.59155273 C-2.2738446 60.42696533 -2.26979614 59.26237793 -2.265625 58.0625 C-2.26753845 56.87148682 -2.2694519 55.68047363 -2.27142334 54.45336914 C-2.2727863 51.93147572 -2.26908216 49.40957531 -2.26074219 46.88769531 C-2.25004453 43.01611651 -2.26063406 39.14500178 -2.2734375 35.2734375 C-2.27211593 32.82812397 -2.26955358 30.38281073 -2.265625 27.9375 C-2.26967346 26.7729126 -2.27372192 25.6083252 -2.27789307 24.40844727 C-2.27158875 23.33393311 -2.26528442 22.25941895 -2.25878906 21.15234375 C-2.25719788 20.20351318 -2.25560669 19.25468262 -2.25396729 18.27709961 C-2 16 -2 16 0 14 C2.74485593 13.85492305 5.38480543 13.81347577 8.125 13.875 C8.87910156 13.88402344 9.63320312 13.89304687 10.41015625 13.90234375 C12.27357254 13.9259313 14.13682593 13.96180281 16 14 C16 9.71 16 5.42 16 1 C10.72 1 5.44 1 0 1 C0 0.67 0 0.34 0 0 Z " fill="#013BDC" transform="translate(1226,473)"/>
<path d="M0 0 C2.875 0.75 2.875 0.75 3.875 1.75 C4.33191383 7.00450902 4.33191383 7.00450902 2.6875 9.6875 C0.875 10.75 0.875 10.75 -1.6875 10.5625 C-4.125 9.75 -4.125 9.75 -6.125 7.75 C-6.4883156 4.91613833 -6.4818671 3.34477849 -5 0.875 C-3.125 -0.25 -3.125 -0.25 0 0 Z " fill="#F4F7FD" transform="translate(376.125,553.25)"/>
<path d="M0 0 C6.93 0 13.86 0 21 0 C21.25 11.625 21.25 11.625 19 15 C19 10.71 19 6.42 19 2 C13.06 2 7.12 2 1 2 C1 9.59 1 17.18 1 25 C0.67 25 0.34 25 0 25 C0 16.75 0 8.5 0 0 Z " fill="#0235DB" transform="translate(1205,447)"/>
<path d="M0 0 C1.32 0 2.64 0 4 0 C4 6.6 4 13.2 4 20 C-0.62 20 -5.24 20 -10 20 C-10 19.67 -10 19.34 -10 19 C-8.9275 18.855625 -7.855 18.71125 -6.75 18.5625 C-4.07400181 18.16110027 -1.60118809 17.68482607 1 17 C0.98839844 16.26394531 0.97679687 15.52789062 0.96484375 14.76953125 C0.95582031 13.79371094 0.94679688 12.81789063 0.9375 11.8125 C0.92009766 10.36810547 0.92009766 10.36810547 0.90234375 8.89453125 C0.99513378 6.14423487 1.37888315 3.67520409 2 1 C1.34 0.67 0.68 0.34 0 0 Z " fill="#3363E0" transform="translate(1181,471)"/>
<path d="M0 0 C0.66 0 1.32 0 2 0 C2 6.6 2 13.2 2 20 C-2.62 20 -7.24 20 -12 20 C-12 19.67 -12 19.34 -12 19 C-8.37 19 -4.74 19 -1 19 C-1.01160156 17.71222656 -1.02320313 16.42445313 -1.03515625 15.09765625 C-1.0445327 13.41927228 -1.05363305 11.74088674 -1.0625 10.0625 C-1.07087891 9.21236328 -1.07925781 8.36222656 -1.08789062 7.48632812 C-1.09111328 6.67744141 -1.09433594 5.86855469 -1.09765625 5.03515625 C-1.10289307 4.2862915 -1.10812988 3.53742676 -1.11352539 2.76586914 C-1 1 -1 1 0 0 Z " fill="#2C5CE1" transform="translate(620,471)"/>
<path d="M0 0 C4.55555556 0.55555556 4.55555556 0.55555556 6 2 C6.1875 4.4375 6.1875 4.4375 6 7 C5.34 7.66 4.68 8.32 4 9 C0.875 8.625 0.875 8.625 -2 8 C-2.125 5.125 -2.125 5.125 -2 2 C-1.34 1.34 -0.68 0.68 0 0 Z " fill="#F0F5FC" transform="translate(264,554)"/>
<path d="M0 0 C6.27 0 12.54 0 19 0 C18.15332803 5.0800318 17.69856257 7.01082055 15 11 C14.67 10.34 14.34 9.68 14 9 C14.93578995 6.64018187 15.93347808 4.30368736 17 2 C14.39491364 2.11391632 11.79154454 2.24065548 9.1875 2.375 C8.44951172 2.4059375 7.71152344 2.436875 6.95117188 2.46875 C3.18106885 2.67346148 1.20349259 2.86433827 -2 5 C-1.34 3.35 -0.68 1.7 0 0 Z " fill="#0636DA" transform="translate(692,541)"/>
<path d="M0 0 C-0.928125 0.4125 -1.85625 0.825 -2.8125 1.25 C-6.02075514 2.70444739 -6.02075514 2.70444739 -7.4375 5.0625 C-9.76160277 7.94438743 -12.48792774 8.20481383 -16 9 C-12.67202054 3.93568344 -6.31170099 -2.10390033 0 0 Z " fill="#103EDB" transform="translate(655,475)"/>
<path d="M0 0 C0.33 0 0.66 0 1 0 C0.88557539 1.60495567 0.75805306 3.20898119 0.625 4.8125 C0.55539062 5.70582031 0.48578125 6.59914063 0.4140625 7.51953125 C0 10 0 10 -2 13 C-3.46845421 7.52667068 -2.44038726 4.88077452 0 0 Z " fill="#0735DC" transform="translate(398,460)"/>
</svg>
